#!OML:ASF I:\Actors\actors\Patient Classification 2\Patient 1\Session 1\actor1.ASF
:FULLY-SPECIFIED
:DEGREES
341
root -0.881147 17.8776 5.75162 4.6453 -60.0582 -10.8506
lowerback 10.34 -6.30684 3.90895
upperback -0.868764 -7.74862 3.33303
thorax -6.74183 -3.8925 2.58358
lowerneck -18.0749 11.5728 18.2922
upperneck 19.5532 13.0677 -9.18399
head 11.1754 6.35503 -4.14592
rclavicle 8.59992e-014 -4.21423e-014
rhumerus 48.3355 18.1223 -0.19167
rradius 121.313
rwrist -78.2944
rhand -0.438883 -57.6615
rfingers 7.12502
rthumb 25.1699 -86.022
lclavicle 8.59992e-014 -4.21423e-014
lhumerus 26.6245 49.5083 63.548
lradius 36.3619
lwrist 29.9899
lhand -16.3286 -25.6903
lfingers 7.12502
lthumb 9.88317 4.05776
rfemur 10.4861 14.1577 22.3773
rtibia -17.8971
rfoot 21.7842 5.08674
rtoes 26.3909
lfemur 29.664 14.3779 -13.3811
ltibia -15.4684
lfoot -18.971 35.9089
ltoes 5.74123
342
root -0.886936 17.8745 5.76984 4.80094 -60.3629 -11.0196
lowerback 10.3476 -6.46477 4.00816
upperback -0.784168 -7.94847 3.39432
thorax -6.65969 -3.99403 2.62098
lowerneck -18.4087 11.9247 18.655
upperneck 19.3986 13.509 -9.64551
head 11.3122 6.51681 -4.26809
rclavicle -3.21161e-014 5.56597e-015
rhumerus 44.1098 12.4858 1.23519
rradius 126.546
rwrist -84.0343
rhand -0.721388 -58.1314
rfingers 7.12502
rthumb 24.8992 -86.5296
lclavicle -3.21161e-014 5.56597e-015
lhumerus 26.0238 50.6108 63.1265
lradius 36.517
lwrist 29.6899
lhand -16.1429 -25.6286
lfingers 7.12502
lthumb 10.0623 4.11087
rfemur 10.5687 14.1637 22.4198
rtibia -18.019
rfoot 22.0803 5.01155
rtoes 26.9022
lfemur 29.6576 14.508 -13.389
ltibia -15.2423
lfoot -19.2019 36.0009
ltoes 5.71084
343
root -0.893451 17.8731 5.78605 4.85112 -60.638 -11.0498
lowerback 10.2692 -6.42269 4.21443
upperback -0.868362 -7.86701 3.42146
thorax -6.73034 -3.96097 2.52328
lowerneck -18.4493 11.903 18.5855
upperneck 19.2369 13.5469 -9.89103
head 11.2794 6.49961 -4.3398
rclavicle 9.61621e-015 3.97569e-014
rhumerus 42.5063 12.6474 1.86876
rradius 127.391
rwrist -84.1029
rhand -0.855779 -58.1024
rfingers 7.12502
rthumb 24.7704 -86.5183
lclavicle 9.61621e-015 3.97569e-014
lhumerus 25.2589 50.9291 62.847
lradius 36.613
lwrist 29.4529
lhand -16.0575 -25.7673
lfingers 7.12502
lthumb 10.1447 3.96815
rfemur 10.4848 14.2404 22.3887
rtibia -17.8374
rfoot 22.1109 5.21017
rtoes 26.7212
lfemur 29.8282 14.6568 -13.457
ltibia -15.4325
lfoot -19.2151 36.1347
ltoes 5.45292
344
root -0.901677 17.8702 5.79661 5.31223 -60.8525 -11.6852
lowerback 10.2959 -6.38795 4.63559
upperback -0.970676 -7.75617 3.56394
thorax -6.89236 -3.91991 2.44149
lowerneck -18.2751 11.8072 18.3455
upperneck 19.057 13.5311 -9.98889
head 11.1663 6.46978 -4.35037
rclavicle 4.72114e-015 -9.54166e-015
rhumerus 41.0822 12.9676 2.51249
rradius 128.032
rwrist -84.0714
rhand -0.567301 -58.2962
rfingers 7.12502
rthumb 25.0469 -86.6739
lclavicle 4.72114e-015 -9.54166e-015
lhumerus 24.184 51.122 62.3439
lradius 36.7086
lwrist 29.3824
lhand -15.9541 -25.8965
lfingers 7.12502
lthumb 10.2445 3.83407
rfemur 10.4992 14.3654 22.7362
rtibia -17.6044
rfoot 22.029 5.47241
rtoes 26.2177
lfemur 30.1706 14.7664 -13.1345
ltibia -15.6885
lfoot -19.2441 36.2221
ltoes 5.47007
345
root -0.917481 17.8578 5.7984 7.22303 -60.9612 -14.3667
lowerback 10.703 -6.54728 5.75184
upperback -0.866926 -7.78768 3.9313
thorax -7.11239 -3.97087 2.28065
lowerneck -18.1652 11.9551 18.5541
upperneck 18.9191 13.7382 -10.1641
head 11.1586 6.56167 -4.40771
rclavicle -9.21864e-015 2.3059e-014
rhumerus 40.1979 13.3217 2.80785
rradius 128.43
rwrist -83.9212
rhand -0.186533 -58.3445
rfingers 7.12502
rthumb 25.4117 -86.6708
lclavicle -9.21864e-015 2.3059e-014
lhumerus 23.0967 51.7503 61.5
lradius 36.8099
lwrist 29.4784
lhand -15.6574 -25.9749
lfingers 7.12502
lthumb 10.5307 3.74132
rfemur 10.876 14.7749 24.3262
rtibia -17.3252
rfoot 21.7945 5.5299
rtoes 26.0426
lfemur 30.9844 14.8731 -11.5225
ltibia -15.9809
lfoot -19.2132 36.2252
ltoes 5.83342
346
root -0.923455 17.8563 5.80944 7.32814 -61.1297 -14.4967
lowerback 10.7052 -6.66101 5.86336
upperback -0.878677 -7.92393 3.94676
thorax -7.14161 -4.04145 2.26403
lowerneck -18.1283 12.1227 18.8343
upperneck 18.7252 13.9485 -10.3963
head 11.1556 6.65096 -4.49246
rclavicle -4.84538e-014 0
rhumerus 39.1255 13.4245 3.02504
rradius 129.091
rwrist -84.0265
rhand -0.169178 -58.2012
rfingers 7.12502
rthumb 25.4283 -86.5251
lclavicle -4.84538e-014 0
lhumerus 22.4116 52.5844 60.99
lradius 36.8023
lwrist 29.3806
lhand -15.214 -26.2027
lfingers 7.12502
lthumb 10.9584 3.4913
rfemur 10.7718 14.798 24.3618
rtibia -17.0374
rfoot 21.8525 5.69836
rtoes 26.1805
lfemur 31.2129 14.8945 -11.5331
ltibia -16.2689
lfoot -19.1188 36.4046
ltoes 6.15277
347
root -0.930425 17.8548 5.82109 7.44249 -61.3084 -14.6275
lowerback 10.6806 -6.75367 5.97094
upperback -0.893093 -8.03274 4.02154
thorax -7.14923 -4.09829 2.30334
lowerneck -18.091 12.2491 18.8937
upperneck 18.4633 14.1518 -10.5966
head 11.1061 6.72489 -4.53372
rclavicle 2.65874e-014 -3.81667e-014
rhumerus 37.9408 13.3617 3.33385
rradius 129.996
rwrist -84.3934
rhand -0.426226 -58.1852
rfingers 7.12502
rthumb 25.1821 -86.544
lclavicle 2.65874e-014 -3.81667e-014
lhumerus 21.7139 53.4029 60.5984
lradius 36.7783
lwrist 28.9367
lhand -14.9243 -26.4554
lfingers 7.12502
lthumb 11.2377 3.2236
rfemur 10.6704 14.8025 24.3924
rtibia -16.772
rfoot 21.8938 5.89557
rtoes 26.1918
lfemur 31.4189 14.8859 -11.5589
ltibia -16.5212
lfoot -19.1291 36.5689
ltoes 6.44568
348
root -0.937296 17.854 5.82993 7.50325 -61.4421 -14.6373
lowerback 10.6535 -6.86563 5.96741
upperback -0.969433 -8.1768 4.12958
thorax -7.2017 -4.16837 2.44841
lowerneck -17.9859 12.3713 18.893
upperneck 18.2395 14.3752 -10.7694
head 11.055 6.80978 -4.55471
rclavicle -9.28324e-014 2.78299e-014
rhumerus 36.8997 13.3392 3.68629
rradius 130.819
rwrist -84.7413
rhand -0.617111 -58.3883
rfingers 7.12502
rthumb 24.9992 -86.7727
lclavicle -9.28324e-014 2.78299e-014
lhumerus 20.6383 54.0715 59.8591
lradius 36.8125
lwrist 28.5751
lhand -14.7646 -26.6608
lfingers 7.12502
lthumb 11.3917 3.00971
rfemur 10.6424 14.8028 24.353
rtibia -16.7707
rfoot 21.9788 5.92619
rtoes 26.4186
lfemur 31.394 14.885 -11.6347
ltibia -16.474
lfoot -19.2825 36.6114
ltoes 6.75098
349
root -0.943094 17.8529 5.83558 7.56457 -61.5083 -14.6346
lowerback 10.6427 -6.99177 5.94194
upperback -1.075 -8.33862 4.2559
thorax -7.28849 -4.24611 2.6328
lowerneck -17.7631 12.4584 18.8336
upperneck 17.9758 14.5836 -10.9384
head 10.9609 6.88918 -4.57358
rclavicle -2.40778e-014 -2.62396e-014
rhumerus 35.9328 13.3166 4.07066
rradius 131.578
rwrist -84.8834
rhand -0.446209 -58.4949
rfingers 7.12502
rthumb 25.1629 -86.8564
lclavicle -2.40778e-014 -2.62396e-014
lhumerus 19.2248 54.6166 58.8633
lradius 36.9962
lwrist 28.5281
lhand -14.5421 -26.7805
lfingers 7.12502
lthumb 11.6063 2.87813
rfemur 10.5986 14.7958 24.3192
rtibia -16.7668
rfoot 22.0426 5.85937
rtoes 26.8811
lfemur 31.3346 14.909 -11.6767
ltibia -16.4279
lfoot -19.3124 36.6197
ltoes 6.95059
350
root -0.948925 17.8519 5.84117 7.75076 -61.5636 -14.7857
lowerback 10.6595 -7.12455 5.98867
upperback -1.17637 -8.49614 4.42855
thorax -7.38912 -4.32387 2.83087
lowerneck -17.5652 12.552 18.656
upperneck 17.7253 14.824 -11.0863
head 10.87 6.97724 -4.56004
rclavicle -9.76778e-014 2.70347e-014
rhumerus 35.0317 13.2727 4.48634
rradius 132.375
rwrist -84.9695
rhand -0.0469681 -58.0148
rfingers 7.12502
rthumb 25.5454 -86.322
lclavicle -9.76778e-014 2.70347e-014
lhumerus 17.6503 55.2069 57.8449
lradius 37.3135
lwrist 28.5987
lhand -14.3164 -26.9049
lfingers 7.12502
lthumb 11.824 2.74131
rfemur 10.568 14.7781 24.3724
rtibia -16.7806
rfoot 22.1301 5.80698
rtoes 27.2621
lfemur 31.2894 14.9558 -11.6207
ltibia -16.3723
lfoot -19.3232 36.6224
ltoes 6.85861
351
root -0.956071 17.8503 5.84717 7.95563 -61.6504 -14.9525
lowerback 10.6112 -7.09608 6.17476
upperback -1.16126 -8.44092 4.3856
thorax -7.37953 -4.30444 2.66964
lowerneck -17.9405 12.6502 18.886
upperneck 17.7623 14.8524 -11.1804
head 10.9843 6.98054 -4.60614
rclavicle 1.37484e-013 -5.64548e-014
rhumerus 33.5044 13.1166 4.64453
rradius 133.15
rwrist -85.2564
rhand 0.254133 -57.4164
rfingers 7.12502
rthumb 25.8338 -85.682
lclavicle 1.37484e-013 -5.64548e-014
lhumerus 17.4052 55.4941 57.7367
lradius 37.3067
lwrist 28.4116
lhand -14.256 -27.0148
lfingers 7.12502
lthumb 11.8823 2.62808
rfemur 10.5384 14.7794 24.4285
rtibia -16.8083
rfoot 22.2416 5.7804
rtoes 27.5115
lfemur 31.2514 15.0374 -11.5573
ltibia -16.312
lfoot -19.3759 36.5961
ltoes 6.69205
352
root -0.962876 17.8479 5.85248 8.03889 -61.7349 -14.9629
lowerback 11.2561 -7.02023 5.70386
upperback -1.61139 -8.29478 4.87683
thorax -8.08722 -4.20593 3.54824
lowerneck -18.0426 12.6495 18.6218
upperneck 18.0208 15.0079 -11.4639
head 11.1283 6.99958 -4.63836
rclavicle -3.46382e-014 -2.3059e-014
rhumerus 32.491 13.2572 5.67967
rradius 134.011
rwrist -85.6934
rhand 0.235685 -57.2859
rfingers 7.12502
rthumb 25.8161 -85.554
lclavicle -3.46382e-014 -2.3059e-014
lhumerus 15.9579 56.0215 57.4697
lradius 37.326
lwrist 28.0752
lhand -14.2748 -27.0706
lfingers 7.12502
lthumb 11.8642 2.57332
rfemur 10.5048 14.7427 24.3967
rtibia -16.8569
rfoot 22.3819 5.76488
rtoes 27.706
lfemur 31.1785 15.1269 -11.5782
ltibia -16.2331
lfoot -19.4276 36.5218
ltoes 6.76446
353
root -0.967976 17.8462 5.85716 8.02169 -61.7651 -14.8706
lowerback 11.4513 -7.05214 5.52665
upperback -1.82576 -8.32204 5.09947
thorax -8.37155 -4.20633 3.93551
lowerneck -17.9264 12.6786 18.5341
upperneck 17.9297 15.1522 -11.7015
head 11.1124 7.03807 -4.68809
rclavicle 2.16675e-014 -3.18055e-015
rhumerus 31.4641 13.2769 6.20244
rradius 134.801
rwrist -85.8674
rhand 0.179864 -57.4351
rfingers 7.12502
rthumb 25.7626 -85.711
lclavicle 2.16675e-014 -3.18055e-015
lhumerus 15.0147 56.7531 57.2152
lradius 37.3658
lwrist 27.6661
lhand -14.2226 -27.1717
lfingers 7.12502
lthumb 11.9144 2.4693
rfemur 10.4979 14.6724 24.3171
rtibia -16.9399
rfoot 22.511 5.73129
rtoes 27.9229
lfemur 31.0832 15.1889 -11.6361
ltibia -16.1185
lfoot -19.4515 36.3804
ltoes 6.93435
